0
SECTION
2
HEADER
9
$INSUNITS
70
4
9
$ACADVER
1
AC1014
9
$HANDSEED
5
FFFF
0
ENDSEC
0
SECTION
2
TABLES
0
TABLE
2
VPORT
5
8
100
AcDbSymbolTable
0
ENDTAB
0
TABLE
2
LTYPE
5
5
100
AcDbSymbolTable
0
LTYPE
5
14
100
AcDbSymbolTableRecord
100
AcDbLinetypeTableRecord
2
BYBLOCK
70
0
0
LTYPE
5
15
100
AcDbSymbolTableRecord
100
AcDbLinetypeTableRecord
2
BYLAYER
70
0
0
ENDTAB
0
TABLE
2
LAYER
5
2
100
AcDbSymbolTable
70
2
0
LAYER
5
50
100
AcDbSymbolTableRecord
100
AcDbLayerTableRecord
2
0
70
0
6
CONTINUOUS
0
ENDTAB
0
TABLE
2
STYLE
5
3
100
AcDbSymbolTable
70
1
0
STYLE
5
11
100
AcDbSymbolTableRecord
100
AcDbTextStyleTableRecord
2
STANDARD
70
0
0
ENDTAB
0
TABLE
2
VIEW
5
6
100
AcDbSymbolTable
70
0
0
ENDTAB
0
TABLE
2
UCS
5
7
100
AcDbSymbolTable
70
0
0
ENDTAB
0
TABLE
2
APPID
5
9
100
AcDbSymbolTable
70
2
0
APPID
5
12
100
AcDbSymbolTableRecord
100
AcDbRegAppTableRecord
2
ACAD
70
0
0
ENDTAB
0
TABLE
2
DIMSTYLE
5
A
100
AcDbSymbolTable
70
1
0
ENDTAB
0
TABLE
2
BLOCK_RECORD
5
1
100
AcDbSymbolTable
70
1
0
BLOCK_RECORD
5
1F
100
AcDbSymbolTableRecord
100
AcDbBlockTableRecord
2
*MODEL_SPACE
0
BLOCK_RECORD
5
1B
100
AcDbSymbolTableRecord
100
AcDbBlockTableRecord
2
*PAPER_SPACE
0
ENDTAB
0
ENDSEC
0
SECTION
2
BLOCKS
0
BLOCK
5
20
100
AcDbEntity
100
AcDbBlockBegin
2
*MODEL_SPACE
0
ENDBLK
5
21
100
AcDbEntity
100
AcDbBlockEnd
0
BLOCK
5
1C
100
AcDbEntity
100
AcDbBlockBegin
2
*PAPER_SPACE
0
ENDBLK
5
1D
100
AcDbEntity
100
AcDbBlockEnd
0
ENDSEC
0
SECTION
2
ENTITIES
0
LINE
5
100
100
AcDbEntity
8
0
100
AcDbLine
10
1.5543122344752192e-14
20
59.359999999999999
30
0
11
3.3306690738754696e-14
21
100
31
0
0
LINE
5
101
100
AcDbEntity
8
0
100
AcDbLine
10
67.78000000000003
20
-5.5511151231257827e-16
30
0
11
50.000000000000014
21
-5.5511151231257827e-16
31
0
0
LINE
5
102
100
AcDbEntity
8
0
100
AcDbLine
10
75.000000000000028
20
100
30
0
11
92.78000000000003
21
100
31
0
0
LINE
5
103
100
AcDbEntity
8
0
100
AcDbLine
10
50.000000000000036
20
100
30
0
11
67.780000000000044
21
100
31
0
0
LINE
5
104
100
AcDbEntity
8
0
100
AcDbLine
10
3.3306690738754696e-14
20
100
30
0
11
17.780000000000037
21
100
31
0
0
LINE
5
105
100
AcDbEntity
8
0
100
AcDbLine
10
92.78000000000003
20
100
30
0
11
92.780000000000001
21
59.359999999999999
31
0
0
LINE
5
106
100
AcDbEntity
8
0
100
AcDbLine
10
42.780000000000022
20
-5.5511151231257827e-16
30
0
11
25.000000000000018
21
-5.5511151231257827e-16
31
0
0
LINE
5
107
100
AcDbEntity
8
0
100
AcDbLine
10
92.780000000000001
20
-5.5511151231257827e-16
30
0
11
75.000000000000014
21
-5.5511151231257827e-16
31
0
0
LINE
5
108
100
AcDbEntity
8
0
100
AcDbLine
10
17.780000000000019
20
-5.5511151231257827e-16
30
0
11
1.5543122344752192e-14
21
-5.5511151231257827e-16
31
0
0
LINE
5
109
100
AcDbEntity
8
0
100
AcDbLine
10
25.000000000000036
20
100
30
0
11
42.780000000000044
21
100
31
0
0
LINE
5
110
100
AcDbEntity
8
0
100
AcDbLine
10
1.5543122344752192e-14
20
-5.5511151231257827e-16
30
0
11
3.3306690738754696e-14
21
40.640000000000001
31
0
0
LINE
5
111
100
AcDbEntity
8
0
100
AcDbLine
10
4.8900000000000352
20
42.640000000000001
30
0
11
4.8900000000000352
21
42.640000000000001
31
0
0
LINE
5
112
100
AcDbEntity
8
0
100
AcDbLine
10
12.890000000000036
20
42.640000000000001
30
0
11
12.890000000000036
21
42.640000000000001
31
0
0
LINE
5
113
100
AcDbEntity
8
0
100
AcDbLine
10
12.890000000000036
20
57.359999999999999
30
0
11
12.890000000000036
21
57.359999999999999
31
0
0
LINE
5
114
100
AcDbEntity
8
0
100
AcDbLine
10
4.8900000000000352
20
57.359999999999999
30
0
11
4.8900000000000352
21
57.359999999999999
31
0
0
LINE
5
115
100
AcDbEntity
8
0
100
AcDbLine
10
37.890000000000036
20
57.359999999999999
30
0
11
37.890000000000036
21
57.359999999999999
31
0
0
LINE
5
116
100
AcDbEntity
8
0
100
AcDbLine
10
29.890000000000036
20
57.359999999999999
30
0
11
29.890000000000036
21
57.359999999999999
31
0
0
LINE
5
117
100
AcDbEntity
8
0
100
AcDbLine
10
29.890000000000036
20
42.640000000000001
30
0
11
29.890000000000036
21
42.640000000000001
31
0
0
LINE
5
118
100
AcDbEntity
8
0
100
AcDbLine
10
37.890000000000036
20
42.640000000000001
30
0
11
37.890000000000036
21
42.640000000000001
31
0
0
LINE
5
119
100
AcDbEntity
8
0
100
AcDbLine
10
62.890000000000029
20
57.359999999999999
30
0
11
62.890000000000029
21
57.359999999999999
31
0
0
LINE
5
120
100
AcDbEntity
8
0
100
AcDbLine
10
54.890000000000036
20
57.359999999999999
30
0
11
54.890000000000036
21
57.359999999999999
31
0
0
LINE
5
121
100
AcDbEntity
8
0
100
AcDbLine
10
54.890000000000036
20
42.640000000000001
30
0
11
54.890000000000036
21
42.640000000000001
31
0
0
LINE
5
122
100
AcDbEntity
8
0
100
AcDbLine
10
62.890000000000029
20
42.640000000000001
30
0
11
62.890000000000029
21
42.640000000000001
31
0
0
LINE
5
123
100
AcDbEntity
8
0
100
AcDbLine
10
87.890000000000029
20
57.359999999999999
30
0
11
87.890000000000029
21
57.359999999999999
31
0
0
LINE
5
124
100
AcDbEntity
8
0
100
AcDbLine
10
79.890000000000029
20
57.359999999999999
30
0
11
79.890000000000029
21
57.359999999999999
31
0
0
LINE
5
125
100
AcDbEntity
8
0
100
AcDbLine
10
79.890000000000029
20
42.640000000000001
30
0
11
79.890000000000029
21
42.640000000000001
31
0
0
LINE
5
126
100
AcDbEntity
8
0
100
AcDbLine
10
87.890000000000029
20
42.640000000000001
30
0
11
87.890000000000029
21
42.640000000000001
31
0
0
LINE
5
127
100
AcDbEntity
8
0
100
AcDbLine
10
19.780000000000033
20
87.680000000000007
30
0
11
23.000000000000036
21
87.680000000000007
31
0
0
LINE
5
128
100
AcDbEntity
8
0
100
AcDbLine
10
19.780000000000022
20
71.680000000000007
30
0
11
23.000000000000021
21
71.680000000000007
31
0
0
LINE
5
129
100
AcDbEntity
8
0
100
AcDbLine
10
19.78000000000003
20
28.32
30
0
11
23.000000000000036
21
28.319999999999993
31
0
0
LINE
5
130
100
AcDbEntity
8
0
100
AcDbLine
10
19.780000000000022
20
12.32
30
0
11
23.000000000000014
21
12.319999999999997
31
0
0
LINE
5
131
100
AcDbEntity
8
0
100
AcDbLine
10
44.78000000000003
20
28.32
30
0
11
48.000000000000036
21
28.319999999999993
31
0
0
LINE
5
132
100
AcDbEntity
8
0
100
AcDbLine
10
44.780000000000022
20
12.32
30
0
11
48.000000000000014
21
12.319999999999997
31
0
0
LINE
5
133
100
AcDbEntity
8
0
100
AcDbLine
10
44.780000000000022
20
71.680000000000007
30
0
11
48.000000000000014
21
71.680000000000007
31
0
0
LINE
5
134
100
AcDbEntity
8
0
100
AcDbLine
10
44.78000000000003
20
87.680000000000007
30
0
11
48.000000000000036
21
87.680000000000007
31
0
0
LINE
5
135
100
AcDbEntity
8
0
100
AcDbLine
10
69.78000000000003
20
28.32
30
0
11
73.000000000000028
21
28.319999999999993
31
0
0
LINE
5
136
100
AcDbEntity
8
0
100
AcDbLine
10
69.78000000000003
20
12.32
30
0
11
73
21
12.319999999999997
31
0
0
LINE
5
137
100
AcDbEntity
8
0
100
AcDbLine
10
69.78000000000003
20
71.680000000000007
30
0
11
73.000000000000014
21
71.680000000000007
31
0
0
LINE
5
138
100
AcDbEntity
8
0
100
AcDbLine
10
69.78000000000003
20
87.680000000000007
30
0
11
73.000000000000028
21
87.680000000000007
31
0
0
LINE
5
139
100
AcDbEntity
8
0
100
AcDbLine
10
17.780000000000037
20
100
30
0
11
17.780000000000026
21
89.680000000000007
31
0
0
LINE
5
140
100
AcDbEntity
8
0
100
AcDbLine
10
17.780000000000022
20
69.680000000000007
30
0
11
17.780000000000019
21
59.359999999999999
31
0
0
LINE
5
141
100
AcDbEntity
8
0
100
AcDbLine
10
25.000000000000018
20
59.359999999999999
30
0
11
25.000000000000021
21
69.680000000000007
31
0
0
LINE
5
142
100
AcDbEntity
8
0
100
AcDbLine
10
25.000000000000036
20
89.680000000000007
30
0
11
25.000000000000036
21
100
31
0
0
LINE
5
143
100
AcDbEntity
8
0
100
AcDbLine
10
42.780000000000044
20
100
30
0
11
42.78000000000003
21
89.680000000000007
31
0
0
LINE
5
144
100
AcDbEntity
8
0
100
AcDbLine
10
42.780000000000015
20
69.680000000000007
30
0
11
42.780000000000022
21
59.359999999999999
31
0
0
LINE
5
145
100
AcDbEntity
8
0
100
AcDbLine
10
50.000000000000014
20
59.359999999999999
30
0
11
50.000000000000028
21
69.680000000000007
31
0
0
LINE
5
146
100
AcDbEntity
8
0
100
AcDbLine
10
50.000000000000028
20
89.680000000000007
30
0
11
50.000000000000036
21
100
31
0
0
LINE
5
147
100
AcDbEntity
8
0
100
AcDbLine
10
67.780000000000044
20
100
30
0
11
67.78000000000003
21
89.680000000000007
31
0
0
LINE
5
148
100
AcDbEntity
8
0
100
AcDbLine
10
67.780000000000015
20
69.680000000000007
30
0
11
67.78000000000003
21
59.359999999999999
31
0
0
LINE
5
149
100
AcDbEntity
8
0
100
AcDbLine
10
75.000000000000014
20
59.359999999999999
30
0
11
75.000000000000028
21
69.680000000000007
31
0
0
LINE
5
150
100
AcDbEntity
8
0
100
AcDbLine
10
75.000000000000028
20
89.680000000000007
30
0
11
75.000000000000028
21
100
31
0
0
LINE
5
151
100
AcDbEntity
8
0
100
AcDbLine
10
92.78000000000003
20
40.640000000000001
30
0
11
92.780000000000001
21
-5.5511151231257827e-16
31
0
0
LINE
5
152
100
AcDbEntity
8
0
100
AcDbLine
10
74.999999999999986
20
0
30
0
11
75.000000000000014
21
10.319999999999993
31
0
0
LINE
5
153
100
AcDbEntity
8
0
100
AcDbLine
10
75.000000000000028
20
30.319999999999997
30
0
11
75.000000000000028
21
40.640000000000001
31
0
0
LINE
5
154
100
AcDbEntity
8
0
100
AcDbLine
10
67.780000000000044
20
40.640000000000001
30
0
11
67.78000000000003
21
30.32
31
0
0
LINE
5
155
100
AcDbEntity
8
0
100
AcDbLine
10
67.78000000000003
20
10.319999999999999
30
0
11
67.78000000000003
21
-5.5511151231257827e-16
31
0
0
LINE
5
156
100
AcDbEntity
8
0
100
AcDbLine
10
50
20
0
30
0
11
50.000000000000014
21
10.319999999999993
31
0
0
LINE
5
157
100
AcDbEntity
8
0
100
AcDbLine
10
50.000000000000036
20
30.319999999999997
30
0
11
50.000000000000036
21
40.640000000000001
31
0
0
LINE
5
158
100
AcDbEntity
8
0
100
AcDbLine
10
42.780000000000022
20
10.319999999999999
30
0
11
42.780000000000022
21
-5.5511151231257827e-16
31
0
0
LINE
5
159
100
AcDbEntity
8
0
100
AcDbLine
10
42.78000000000003
20
30.32
30
0
11
42.780000000000044
21
40.640000000000001
31
0
0
LINE
5
160
100
AcDbEntity
8
0
100
AcDbLine
10
25.000000000000032
20
30.319999999999997
30
0
11
25.000000000000036
21
40.640000000000001
31
0
0
LINE
5
161
100
AcDbEntity
8
0
100
AcDbLine
10
25.000000000000018
20
10.319999999999997
30
0
11
25
21
0
31
0
0
LINE
5
162
100
AcDbEntity
8
0
100
AcDbLine
10
17.780000000000026
20
10.32
30
0
11
17.780000000000019
21
-5.5511151231257827e-16
31
0
0
LINE
5
163
100
AcDbEntity
8
0
100
AcDbLine
10
17.78000000000003
20
30.32
30
0
11
17.780000000000037
21
40.640000000000001
31
0
0
LINE
5
164
100
AcDbEntity
8
0
100
AcDbLine
10
1.3877787807814457e-14
20
55.359999999999999
30
0
11
2.8900000000000361
21
55.359999999999999
31
0
0
LINE
5
165
100
AcDbEntity
8
0
100
AcDbLine
10
1.3877787807814457e-14
20
44.640000000000001
30
0
11
2.8900000000000361
21
44.640000000000001
31
0
0
LINE
5
166
100
AcDbEntity
8
0
100
AcDbLine
10
1.3877787807814457e-14
20
44.640000000000001
30
0
11
1.3877787807814457e-14
21
55.359999999999999
31
0
0
LINE
5
167
100
AcDbEntity
8
0
100
AcDbLine
10
1.5543122344752192e-14
20
59.359999999999999
30
0
11
2.8900000000000352
21
59.359999999999999
31
0
0
LINE
5
168
100
AcDbEntity
8
0
100
AcDbLine
10
3.3306690738754696e-14
20
40.640000000000001
30
0
11
2.8900000000000365
21
40.640000000000001
31
0
0
LINE
5
169
100
AcDbEntity
8
0
100
AcDbLine
10
14.890000000000036
20
40.640000000000001
30
0
11
17.780000000000037
21
40.640000000000001
31
0
0
LINE
5
170
100
AcDbEntity
8
0
100
AcDbLine
10
14.890000000000036
20
44.640000000000001
30
0
11
27.890000000000033
21
44.640000000000001
31
0
0
LINE
5
171
100
AcDbEntity
8
0
100
AcDbLine
10
25.000000000000036
20
40.640000000000001
30
0
11
27.890000000000033
21
40.640000000000001
31
0
0
LINE
5
172
100
AcDbEntity
8
0
100
AcDbLine
10
39.890000000000036
20
44.640000000000001
30
0
11
52.890000000000029
21
44.640000000000015
31
0
0
LINE
5
173
100
AcDbEntity
8
0
100
AcDbLine
10
39.890000000000036
20
40.640000000000001
30
0
11
42.780000000000044
21
40.640000000000001
31
0
0
LINE
5
174
100
AcDbEntity
8
0
100
AcDbLine
10
50.000000000000036
20
40.640000000000001
30
0
11
52.890000000000029
21
40.639999999999993
31
0
0
LINE
5
175
100
AcDbEntity
8
0
100
AcDbLine
10
64.890000000000029
20
40.640000000000001
30
0
11
67.780000000000044
21
40.640000000000001
31
0
0
LINE
5
176
100
AcDbEntity
8
0
100
AcDbLine
10
64.890000000000029
20
44.640000000000001
30
0
11
77.890000000000029
21
44.640000000000015
31
0
0
LINE
5
177
100
AcDbEntity
8
0
100
AcDbLine
10
77.890000000000029
20
40.639999999999993
30
0
11
75.000000000000028
21
40.640000000000001
31
0
0
LINE
5
178
100
AcDbEntity
8
0
100
AcDbLine
10
89.890000000000029
20
40.640000000000008
30
0
11
92.78000000000003
21
40.640000000000001
31
0
0
LINE
5
179
100
AcDbEntity
8
0
100
AcDbLine
10
89.890000000000029
20
44.639999999999993
30
0
11
92.78000000000003
21
44.640000000000001
31
0
0
LINE
5
180
100
AcDbEntity
8
0
100
AcDbLine
10
92.78000000000003
20
44.640000000000001
30
0
11
92.78000000000003
21
55.359999999999999
31
0
0
LINE
5
181
100
AcDbEntity
8
0
100
AcDbLine
10
92.78000000000003
20
55.359999999999999
30
0
11
89.890000000000029
21
55.360000000000007
31
0
0
LINE
5
182
100
AcDbEntity
8
0
100
AcDbLine
10
89.890000000000029
20
59.359999999999992
30
0
11
92.780000000000001
21
59.359999999999999
31
0
0
LINE
5
183
100
AcDbEntity
8
0
100
AcDbLine
10
75.000000000000014
20
59.359999999999999
30
0
11
77.890000000000029
21
59.360000000000007
31
0
0
LINE
5
184
100
AcDbEntity
8
0
100
AcDbLine
10
77.890000000000029
20
55.359999999999985
30
0
11
64.890000000000029
21
55.359999999999999
31
0
0
LINE
5
185
100
AcDbEntity
8
0
100
AcDbLine
10
64.890000000000029
20
59.359999999999999
30
0
11
67.78000000000003
21
59.359999999999999
31
0
0
LINE
5
186
100
AcDbEntity
8
0
100
AcDbLine
10
52.890000000000029
20
59.360000000000007
30
0
11
50.000000000000014
21
59.359999999999999
31
0
0
LINE
5
187
100
AcDbEntity
8
0
100
AcDbLine
10
52.890000000000029
20
55.359999999999985
30
0
11
39.890000000000036
21
55.359999999999999
31
0
0
LINE
5
188
100
AcDbEntity
8
0
100
AcDbLine
10
39.890000000000036
20
59.359999999999999
30
0
11
42.780000000000022
21
59.359999999999999
31
0
0
LINE
5
189
100
AcDbEntity
8
0
100
AcDbLine
10
27.890000000000033
20
59.359999999999999
30
0
11
25.000000000000018
21
59.359999999999999
31
0
0
LINE
5
190
100
AcDbEntity
8
0
100
AcDbLine
10
17.780000000000019
20
59.359999999999999
30
0
11
14.890000000000036
21
59.359999999999999
31
0
0
LINE
5
191
100
AcDbEntity
8
0
100
AcDbLine
10
14.890000000000036
20
55.359999999999999
30
0
11
27.890000000000033
21
55.359999999999999
31
0
0
ARC
5
192
100
AcDbEntity
8
0
100
AcDbCircle
10
19.780000000000019
20
89.680000000000007
30
0
40
1.9999999999999929
100
AcDbArc
50
180
51
270.0000000000004
0
ARC
5
193
100
AcDbEntity
8
0
100
AcDbCircle
10
23.000000000000043
20
89.680000000000007
30
0
40
1.9999999999999929
100
AcDbArc
50
-90.000000000000199
51
0
0
ARC
5
194
100
AcDbEntity
8
0
100
AcDbCircle
10
44.780000000000022
20
89.680000000000007
30
0
40
1.9999999999999929
100
AcDbArc
50
180
51
270.00000000000023
0
ARC
5
195
100
AcDbEntity
8
0
100
AcDbCircle
10
48.00000000000005
20
89.679999999999978
30
0
40
1.9999999999999751
100
AcDbArc
50
-90.000000000000398
51
0
0
ARC
5
196
100
AcDbEntity
8
0
100
AcDbCircle
10
69.78000000000003
20
89.680000000000007
30
0
40
1.9999999999999929
100
AcDbArc
50
180
51
270
0
ARC
5
197
100
AcDbEntity
8
0
100
AcDbCircle
10
73.000000000000057
20
89.679999999999978
30
0
40
1.9999999999999751
100
AcDbArc
50
-90.00000000000081
51
0
0
ARC
5
198
100
AcDbEntity
8
0
100
AcDbCircle
10
19.780000000000033
20
69.679999999999993
30
0
40
2.0000000000000107
100
AcDbArc
50
90.000000000000313
51
180
0
ARC
5
199
100
AcDbEntity
8
0
100
AcDbCircle
10
23.000000000000021
20
69.680000000000007
30
0
40
2.0000000000000018
100
AcDbArc
50
0
51
90
0
ARC
5
200
100
AcDbEntity
8
0
100
AcDbCircle
10
44.78000000000003
20
69.679999999999978
30
0
40
2.0000000000000195
100
AcDbArc
50
90.000000000000199
51
180
0
ARC
5
201
100
AcDbEntity
8
0
100
AcDbCircle
10
48.000000000000007
20
69.679999999999978
30
0
40
2.0000000000000195
100
AcDbArc
50
0
51
89.999999999999801
0
ARC
5
202
100
AcDbEntity
8
0
100
AcDbCircle
10
69.78000000000003
20
69.679999999999978
30
0
40
2.0000000000000195
100
AcDbArc
50
90
51
180
0
ARC
5
203
100
AcDbEntity
8
0
100
AcDbCircle
10
73
20
69.679999999999978
30
0
40
2.0000000000000195
100
AcDbArc
50
0
51
89.999999999999588
0
ARC
5
204
100
AcDbEntity
8
0
100
AcDbCircle
10
2.8900000000000259
20
57.359999999999985
30
0
40
2.0000000000000098
100
AcDbArc
50
0
51
89.99999999999973
0
ARC
5
205
100
AcDbEntity
8
0
100
AcDbCircle
10
14.890000000000045
20
57.359999999999985
30
0
40
2.0000000000000107
100
AcDbArc
50
90.000000000000256
51
180
0
ARC
5
206
100
AcDbEntity
8
0
100
AcDbCircle
10
27.890000000000018
20
57.359999999999985
30
0
40
2.0000000000000151
100
AcDbArc
50
0
51
89.999999999999588
0
ARC
5
207
100
AcDbEntity
8
0
100
AcDbCircle
10
39.89000000000005
20
57.359999999999985
30
0
40
2.0000000000000107
100
AcDbArc
50
90.000000000000398
51
180
0
ARC
5
208
100
AcDbEntity
8
0
100
AcDbCircle
10
52.890000000000015
20
57.359999999999985
30
0
40
2.0000000000000195
100
AcDbArc
50
0
51
89.999999999999588
0
ARC
5
209
100
AcDbEntity
8
0
100
AcDbCircle
10
64.890000000000057
20
57.359999999999978
30
0
40
2.0000000000000195
100
AcDbArc
50
90.00000000000081
51
180
0
ARC
5
210
100
AcDbEntity
8
0
100
AcDbCircle
10
77.890000000000015
20
57.359999999999985
30
0
40
2.0000000000000195
100
AcDbArc
50
0
51
89.999999999999588
0
ARC
5
211
100
AcDbEntity
8
0
100
AcDbCircle
10
89.890000000000015
20
57.360000000000014
30
0
40
1.9999999999999751
100
AcDbArc
50
89.999999999999588
51
180
0
ARC
5
212
100
AcDbEntity
8
0
100
AcDbCircle
10
2.8900000000000254
20
57.360000000000007
30
0
40
2.0000000000000107
100
AcDbArc
50
270.00000000000034
51
360
0
ARC
5
213
100
AcDbEntity
8
0
100
AcDbCircle
10
14.890000000000045
20
57.360000000000007
30
0
40
2.0000000000000084
100
AcDbArc
50
180
51
269.99999999999972
0
ARC
5
214
100
AcDbEntity
8
0
100
AcDbCircle
10
27.890000000000018
20
57.360000000000007
30
0
40
2.0000000000000107
100
AcDbArc
50
270.0000000000004
51
360
0
ARC
5
215
100
AcDbEntity
8
0
100
AcDbCircle
10
39.89000000000005
20
57.360000000000007
30
0
40
2.0000000000000107
100
AcDbArc
50
180
51
269.9999999999996
0
ARC
5
216
100
AcDbEntity
8
0
100
AcDbCircle
10
52.890000000000015
20
57.360000000000007
30
0
40
2.0000000000000195
100
AcDbArc
50
270.0000000000004
51
360
0
ARC
5
217
100
AcDbEntity
8
0
100
AcDbCircle
10
64.890000000000057
20
57.360000000000014
30
0
40
2.0000000000000195
100
AcDbArc
50
180
51
269.9999999999992
0
ARC
5
218
100
AcDbEntity
8
0
100
AcDbCircle
10
77.890000000000015
20
57.360000000000007
30
0
40
2.0000000000000195
100
AcDbArc
50
270.0000000000004
51
360
0
ARC
5
219
100
AcDbEntity
8
0
100
AcDbCircle
10
89.890000000000015
20
57.359999999999978
30
0
40
1.9999999999999751
100
AcDbArc
50
180
51
270.0000000000004
0
ARC
5
220
100
AcDbEntity
8
0
100
AcDbCircle
10
2.8900000000000254
20
42.639999999999993
30
0
40
2.0000000000000102
100
AcDbArc
50
0
51
89.999999999999702
0
ARC
5
221
100
AcDbEntity
8
0
100
AcDbCircle
10
2.8900000000000245
20
42.640000000000015
30
0
40
2.0000000000000107
100
AcDbArc
50
270.00000000000034
51
360
0
ARC
5
222
100
AcDbEntity
8
0
100
AcDbCircle
10
14.890000000000045
20
42.639999999999993
30
0
40
2.0000000000000107
100
AcDbArc
50
90.000000000000256
51
180
0
ARC
5
223
100
AcDbEntity
8
0
100
AcDbCircle
10
14.890000000000045
20
42.640000000000015
30
0
40
2.0000000000000084
100
AcDbArc
50
180
51
269.99999999999972
0
ARC
5
224
100
AcDbEntity
8
0
100
AcDbCircle
10
27.890000000000018
20
42.639999999999993
30
0
40
2.0000000000000151
100
AcDbArc
50
0
51
89.999999999999588
0
ARC
5
225
100
AcDbEntity
8
0
100
AcDbCircle
10
27.890000000000018
20
42.640000000000015
30
0
40
2.0000000000000107
100
AcDbArc
50
270.0000000000004
51
360
0
ARC
5
226
100
AcDbEntity
8
0
100
AcDbCircle
10
39.89000000000005
20
42.639999999999993
30
0
40
2.0000000000000107
100
AcDbArc
50
90.000000000000398
51
180
0
ARC
5
227
100
AcDbEntity
8
0
100
AcDbCircle
10
39.89000000000005
20
42.640000000000015
30
0
40
2.0000000000000107
100
AcDbArc
50
180
51
269.9999999999996
0
ARC
5
228
100
AcDbEntity
8
0
100
AcDbCircle
10
52.890000000000015
20
42.639999999999993
30
0
40
2.0000000000000195
100
AcDbArc
50
0
51
89.999999999999588
0
ARC
5
229
100
AcDbEntity
8
0
100
AcDbCircle
10
52.890000000000015
20
42.640000000000015
30
0
40
2.0000000000000195
100
AcDbArc
50
270.0000000000004
51
360
0
ARC
5
230
100
AcDbEntity
8
0
100
AcDbCircle
10
64.890000000000057
20
42.639999999999986
30
0
40
2.0000000000000195
100
AcDbArc
50
90.00000000000081
51
180
0
ARC
5
231
100
AcDbEntity
8
0
100
AcDbCircle
10
64.890000000000057
20
42.640000000000022
30
0
40
2.0000000000000195
100
AcDbArc
50
180
51
269.9999999999992
0
ARC
5
232
100
AcDbEntity
8
0
100
AcDbCircle
10
77.890000000000015
20
42.639999999999993
30
0
40
2.0000000000000195
100
AcDbArc
50
0
51
89.999999999999588
0
ARC
5
233
100
AcDbEntity
8
0
100
AcDbCircle
10
77.890000000000015
20
42.640000000000015
30
0
40
2.0000000000000195
100
AcDbArc
50
270.0000000000004
51
360
0
ARC
5
234
100
AcDbEntity
8
0
100
AcDbCircle
10
89.890000000000015
20
42.640000000000022
30
0
40
1.9999999999999751
100
AcDbArc
50
89.999999999999588
51
180
0
ARC
5
235
100
AcDbEntity
8
0
100
AcDbCircle
10
89.890000000000015
20
42.639999999999986
30
0
40
1.9999999999999751
100
AcDbArc
50
180
51
270.0000000000004
0
ARC
5
236
100
AcDbEntity
8
0
100
AcDbCircle
10
19.780000000000037
20
30.320000000000004
30
0
40
2.0000000000000062
100
AcDbArc
50
180
51
269.99999999999983
0
ARC
5
237
100
AcDbEntity
8
0
100
AcDbCircle
10
23.000000000000036
20
30.319999999999993
30
0
40
1.9999999999999973
100
AcDbArc
50
-90
51
0
0
ARC
5
238
100
AcDbEntity
8
0
100
AcDbCircle
10
44.780000000000044
20
30.320000000000007
30
0
40
2.0000000000000107
100
AcDbArc
50
180
51
269.9999999999996
0
ARC
5
239
100
AcDbEntity
8
0
100
AcDbCircle
10
48.000000000000028
20
30.32
30
0
40
2.0000000000000062
100
AcDbArc
50
270.00000000000023
51
360
0
ARC
5
240
100
AcDbEntity
8
0
100
AcDbCircle
10
69.780000000000044
20
30.320000000000007
30
0
40
2.0000000000000107
100
AcDbArc
50
180
51
269.9999999999996
0
ARC
5
241
100
AcDbEntity
8
0
100
AcDbCircle
10
73.000000000000028
20
30.32
30
0
40
2.0000000000000062
100
AcDbArc
50
270
51
360
0
ARC
5
242
100
AcDbEntity
8
0
100
AcDbCircle
10
19.78000000000003
20
10.319999999999999
30
0
40
2.0000000000000018
100
AcDbArc
50
90.000000000000199
51
180
0
ARC
5
243
100
AcDbEntity
8
0
100
AcDbCircle
10
23.000000000000011
20
10.31999999999999
30
0
40
2.0000000000000062
100
AcDbArc
50
0
51
89.999999999999901
0
ARC
5
244
100
AcDbEntity
8
0
100
AcDbCircle
10
44.78000000000003
20
10.319999999999986
30
0
40
2.0000000000000129
100
AcDbArc
50
90.000000000000199
51
180
0
ARC
5
245
100
AcDbEntity
8
0
100
AcDbCircle
10
48.000000000000007
20
10.319999999999986
30
0
40
2.0000000000000107
100
AcDbArc
50
0
51
89.999999999999801
0
ARC
5
246
100
AcDbEntity
8
0
100
AcDbCircle
10
69.78000000000003
20
10.319999999999986
30
0
40
2.0000000000000129
100
AcDbArc
50
90
51
180
0
ARC
5
247
100
AcDbEntity
8
0
100
AcDbCircle
10
73
20
10.319999999999979
30
0
40
2.0000000000000195
100
AcDbArc
50
0
51
90
0
ENDSEC
0
SECTION
2
OBJECTS
0
DICTIONARY
5
C
100
AcDbDictionary
3
ACAD_GROUP
350
D
3
ACAD_MLINESTYLE
350
17
0
DICTIONARY
5
D
100
AcDbDictionary
0
DICTIONARY
5
1A
330
C
100
AcDbDictionary
0
DICTIONARY
5
17
100
AcDbDictionary
0
ENDSEC
0
EOF
